<svg width="40" height="40" viewBox="0 0 40 40" fill="none" xmlns="http://www.w3.org/2000/svg">
<g clip-path="url(#clip0_22_0)">
<path d="M34.1712 5.81285C30.411 2.06658 25.411 0.0023162 20.0838 3.05176e-05C9.10645 3.05176e-05 0.173058 8.89128 0.168664 19.8199C0.167385 23.3133 1.08419 26.7233 2.82679 29.7292L0.00146484 40L10.5587 37.244C13.4675 38.8233 16.7425 39.6555 20.0753 39.6569H20.0837H20.0838C31.0595 39.6569 39.9942 30.764 39.9989 19.836C40.0007 14.5394 37.931 9.55939 34.1712 5.81285V5.81285ZM20.0838 36.3092H20.0774C17.1067 36.3076 14.1936 35.5136 11.6526 34.0125L11.0479 33.6556L4.78296 35.2909L6.45561 29.2118L6.06162 28.5885C4.40455 25.9653 3.52976 22.9339 3.53101 19.8212C3.53465 10.7377 10.9597 3.34781 20.0901 3.34781C24.5115 3.34964 28.6671 5.06547 31.7925 8.17926C34.9177 11.293 36.6375 15.4323 36.6362 19.8346C36.6324 28.9184 29.207 36.3092 20.0838 36.3092V36.3092Z" fill="#E0E0E0"/>
<path d="M0.915649 38.8604L3.61192 29.0587C1.94849 26.1901 1.07373 22.9356 1.07478 19.6025C1.07914 9.17327 9.60454 0.688416 20.0796 0.688416C25.1636 0.690701 29.9353 2.66057 33.523 6.2358C37.1114 9.81101 39.0864 14.5632 39.0844 19.6172C39.08 30.0467 30.5541 38.5323 20.0803 38.5323C20.0796 38.5323 20.0809 38.5323 20.0803 38.5323H20.0719C16.8913 38.5313 13.7661 37.7364 10.9905 36.2303L0.915649 38.8604V38.8604Z" fill="url(#paint0_linear_22_0)"/>
<path fill-rule="evenodd" clip-rule="evenodd" d="M15.1626 11.4054C14.7941 10.5898 14.4062 10.5735 14.0557 10.5592C13.769 10.547 13.4407 10.5477 13.113 10.5477C12.7851 10.5477 12.2521 10.6704 11.8014 11.1605C11.3505 11.6505 10.0796 12.8352 10.0796 15.2446C10.0796 17.6543 11.8424 19.9826 12.0881 20.3096C12.3341 20.6361 15.4911 25.7386 20.4908 27.7016C24.646 29.3329 25.4916 29.0084 26.3935 28.9268C27.2954 28.8452 29.3037 27.7424 29.7137 26.5988C30.1236 25.4554 30.1236 24.4753 30.0006 24.2705C29.8776 24.0664 29.5497 23.9439 29.0577 23.699C28.5658 23.4542 26.1475 22.2692 25.6966 22.106C25.2456 21.9427 24.9176 21.8611 24.5897 22.3514C24.2617 22.8412 23.3195 23.9439 23.0326 24.2705C22.7456 24.5977 22.4586 24.6386 21.9667 24.3937C21.4747 24.148 19.8905 23.6314 18.0111 21.9631C16.5488 20.6651 15.5615 19.0621 15.2746 18.5718C14.9876 18.082 15.2438 17.8167 15.4906 17.5726C15.7114 17.3532 15.9825 17.0009 16.2285 16.7149C16.4739 16.4289 16.5559 16.2249 16.7199 15.8983C16.8839 15.5713 16.8019 15.2853 16.6789 15.0404C16.5559 14.7956 15.6 12.3737 15.1626 11.4054V11.4054Z" fill="white"/>
<path d="M34.0084 5.74825C30.2914 2.04498 25.3488 0.00445457 20.0828 0.00213623C9.23141 0.00213623 0.400583 8.79131 0.396221 19.5945C0.394942 23.0478 1.30122 26.4186 3.02381 29.39L0.230957 39.5429L10.667 36.8185C13.5424 38.3797 16.7798 39.2024 20.0744 39.2036H20.0827H20.0828C30.9324 39.2036 39.7646 30.4129 39.7692 19.6103C39.771 14.3746 37.725 9.45178 34.0084 5.74825V5.74825ZM20.0828 35.8945H20.0764C17.1398 35.893 14.2601 35.1081 11.7483 33.6242L11.1505 33.2713L4.95755 34.8879L6.61097 28.8786L6.22151 28.2625C4.58347 25.6694 3.71871 22.6728 3.71999 19.5958C3.72357 10.6166 11.0634 3.31155 20.089 3.31155C24.4597 3.31334 28.5675 5.00948 31.6571 8.08752C34.7464 11.1655 36.4465 15.2573 36.4452 19.6091C36.4413 28.5885 29.1012 35.8945 20.0828 35.8945Z" fill="white"/>
</g>
<defs>
<linearGradient id="paint0_linear_22_0" x1="20" y1="38.8604" x2="20" y2="0.688479" gradientUnits="userSpaceOnUse">
<stop stop-color="#20B038"/>
<stop offset="1" stop-color="#60D66A"/>
</linearGradient>
<clipPath id="clip0_22_0">
<rect width="40" height="40" fill="white"/>
</clipPath>
</defs>
</svg>
