<svg width="37" height="37" viewBox="0 0 37 37" fill="none" xmlns="http://www.w3.org/2000/svg">
<g clip-path="url(#clip0_23_2)">
<path d="M36.6136 11.0985L35.146 9.54114L21.551 23.9674C19.8516 25.7707 16.9936 25.7707 15.2942 23.9674L1.69921 9.62311L0.231567 11.1805L10.3506 21.9182L0.231567 32.6559L1.69921 34.2133L11.8182 23.4756L13.8266 25.6067C15.0625 26.9182 16.6846 27.6559 18.384 27.6559C20.0833 27.6559 21.7055 26.9182 22.9414 25.6067L24.9497 23.4756L35.0687 34.2133L36.5364 32.6559L26.4174 21.9182L36.6136 11.0985Z" fill="#52CE5F"/>
<path d="M33.7557 37H3.24426C1.46764 37 0 35.4426 0 33.5574V10.4426C0 8.55737 1.46764 7 3.24426 7H33.7557C35.5324 7 37 8.55737 37 10.4426V33.5574C37 35.4426 35.5324 37 33.7557 37ZM3.16701 9.21311C2.54906 9.21311 2.0856 9.70491 2.0856 10.3606V33.4754C2.0856 34.1312 2.54906 34.623 3.16701 34.623H33.6785C34.2965 34.623 34.7599 34.1312 34.7599 33.4754V10.3606C34.7599 9.70491 34.2965 9.21311 33.6785 9.21311H3.16701Z" fill="#55CF61"/>
</g>
<defs>
<clipPath id="clip0_23_2">
<rect width="37" height="37" fill="white"/>
</clipPath>
</defs>
</svg>
