<svg width="219" height="54" viewBox="0 0 219 54" fill="none" xmlns="http://www.w3.org/2000/svg">
<g filter="url(#filter0_d_25_32)">
<path d="M37.44 44.88C36.5067 44.88 35.7367 44.2967 35.13 43.13C34.57 42.01 34.29 40.54 34.29 38.72C34.29 37.04 35.2467 33.2133 37.16 27.24C36.8333 27.24 36.2267 27.31 35.34 27.45C34.4533 27.5433 33.2633 27.7067 31.77 27.94C30.3233 28.1733 29.1333 28.3833 28.2 28.57C27.3133 28.71 26.6833 28.8267 26.31 28.92C18.7033 35.5467 12.73 38.86 8.39 38.86C6.57 38.86 5.17 38.2533 4.19 37.04C4.28333 36.9467 4.35333 36.9233 4.4 36.97C4.44667 36.97 4.49333 36.97 4.54 36.97L6.57 37.32C9.97667 37.32 15.1567 34.6133 22.11 29.2V29.13L18.33 29.27C17.21 29.3167 16.23 29.0133 15.39 28.36C14.5967 27.7067 14.2 26.9133 14.2 25.98L14.34 25.84C14.34 25.7933 14.3633 25.77 14.41 25.77L14.62 25.91C14.9 26.1433 15.5067 26.33 16.44 26.47C17.3733 26.61 18.7033 26.6567 20.43 26.61L22.88 26.54H25.19C27.29 24.86 29.8333 22.5267 32.82 19.54C34.22 18.0933 35.4567 16.7633 36.53 15.55C37.65 14.3367 38.5133 13.2867 39.12 12.4L41.29 9.25C41.4767 9.25 41.57 9.50667 41.57 10.02C41.57 12.26 39.9133 15.13 36.6 18.63L29.32 26.33L37.65 25.49C38.0233 24.7433 38.3033 24.1367 38.49 23.67C38.7233 23.2033 38.98 22.69 39.26 22.13C39.54 21.57 39.9367 20.8 40.45 19.82C40.9633 18.7933 41.6633 17.4167 42.55 15.69L45.84 9.39L47.17 6.8C47.6367 5.91333 48.15 5.09666 48.71 4.35C49.27 3.60333 49.7833 3.23 50.25 3.23C50.7633 3.23 51.37 3.39333 52.07 3.72C52.8167 4 53.19 4.30333 53.19 4.63C52.5833 5.51666 51.9067 6.56666 51.16 7.78C50.46 8.99333 49.69 10.3 48.85 11.7C40.59 25.4667 36.46 35.15 36.46 40.75C36.46 40.9833 36.5067 41.3333 36.6 41.8C36.6933 42.3133 36.8333 42.78 37.02 43.2C37.2533 43.8067 37.3933 44.2267 37.44 44.46C37.5333 44.74 37.5333 44.88 37.44 44.88ZM57.6755 44.46C54.6888 44.46 52.1688 42.64 50.1155 39C47.8288 38.7667 46.1255 37.95 45.0055 36.55C43.9321 35.15 43.3955 33.54 43.3955 31.72C43.3955 29.0133 44.6555 26.54 47.1755 24.3C49.7421 22.0133 52.9388 20.4967 56.7655 19.75L54.8055 19.47C53.7788 19.19 53.2655 18.6533 53.2655 17.86C53.2655 16.18 54.9455 14.4767 58.3055 12.75C61.7588 10.93 65.5388 10.02 69.6455 10.02C71.8388 7.64 73.3321 6.45 74.1255 6.45C75.0121 6.45 75.4555 6.82333 75.4555 7.57C74.9888 8.27 74.3355 9.04 73.4955 9.88C72.6555 10.72 71.9088 11.5133 71.2555 12.26C70.4155 13.1933 69.7388 13.9633 69.2255 14.57C68.7588 15.1767 68.5255 15.6667 68.5255 16.04C68.2921 16.74 68.1755 17.23 68.1755 17.51C67.4288 17.37 67.0555 16.74 67.0555 15.62C67.0555 14.9667 67.2188 14.22 67.5455 13.38C67.9188 12.54 68.4788 11.6067 69.2255 10.58C66.6588 10.72 64.2321 11.3733 61.9455 12.54C59.7055 13.7067 58.0488 14.85 56.9755 15.97C55.9488 17.09 55.4355 17.86 55.4355 18.28C55.4355 18.8867 55.9955 19.19 57.1155 19.19L62.3655 18.63C63.8588 18.63 64.6055 19.05 64.6055 19.89C64.6055 20.4033 64.4888 20.66 64.2555 20.66L63.3455 20.52H61.5255C57.8855 20.52 54.2921 21.8033 50.7455 24.37C47.2455 26.9367 45.4955 29.5967 45.4955 32.35C45.4955 35.01 46.8721 36.8767 49.6255 37.95C49.3921 37.1567 49.2755 36.4333 49.2755 35.78C49.2755 35.1733 49.3688 34.5433 49.5555 33.89C49.7888 33.33 50.1621 32.7233 50.6755 32.07C51.2355 31.4167 51.7021 30.9033 52.0755 30.53C52.4021 30.2033 53.1021 29.69 54.1755 28.99C54.5488 28.7567 54.7588 28.64 54.8055 28.64C54.8521 28.5933 54.9455 28.5233 55.0855 28.43C55.2255 28.3367 55.6221 28.1033 56.2755 27.73L58.7955 26.26L61.1755 24.93C61.1288 24.7433 60.8488 24.65 60.3355 24.65C58.9355 24.65 57.3955 25.14 55.7155 26.12C54.0355 27.0533 53.0788 27.94 52.8455 28.78C52.7521 28.6867 52.7055 28.4767 52.7055 28.15C52.7055 27.1233 53.4988 26.12 55.0855 25.14C56.6721 24.16 58.7255 23.67 61.2455 23.67C61.4788 23.67 61.7588 23.6933 62.0855 23.74C62.4121 23.74 62.8088 23.7633 63.2755 23.81C64.9555 23.39 67.1021 22.1767 69.7155 20.17C72.3755 18.1167 73.7055 16.8567 73.7055 16.39C73.7055 16.25 73.5655 16.1567 73.2855 16.11C73.0521 16.0167 72.9355 15.9467 72.9355 15.9C72.9355 15.6667 73.0755 15.5267 73.3555 15.48C74.5221 15.48 75.1055 16.04 75.1055 17.16C75.1055 18.7933 73.5421 20.38 70.4155 21.92L65.0255 24.51C67.1721 25.77 68.2455 27.4033 68.2455 29.41C68.2455 32.1633 66.7055 34.52 63.6255 36.48C60.5455 38.44 57.0688 39.42 53.1955 39.42C52.7288 39.42 52.3321 39.3967 52.0055 39.35C51.7255 39.3033 51.5155 39.28 51.3755 39.28C52.2155 40.4 53.3121 41.38 54.6655 42.22C56.0655 43.1067 57.2321 43.55 58.1655 43.55C59.0988 43.55 59.6821 43.5033 59.9155 43.41C60.1488 43.3167 60.2888 43.2933 60.3355 43.34C60.3355 43.62 60.0321 43.8767 59.4255 44.11C58.8188 44.3433 58.2355 44.46 57.6755 44.46ZM52.4955 38.37C55.6688 38.37 58.7721 37.2733 61.8055 35.08C64.8855 32.8867 66.4255 30.5533 66.4255 28.08C66.4255 27.4267 66.0755 26.7733 65.3755 26.12C64.7221 25.4667 64.0688 25.14 63.4155 25.14C62.1555 25.14 59.7288 26.8433 56.1355 30.25C52.4955 33.61 50.6755 36.0833 50.6755 37.67V38.16C51.1888 38.3 51.7955 38.37 52.4955 38.37ZM106.417 44.88C105.484 44.88 104.714 44.2967 104.107 43.13C103.547 42.01 103.267 40.54 103.267 38.72C103.267 37.04 104.224 33.2133 106.137 27.24C105.811 27.24 105.204 27.31 104.317 27.45C103.431 27.5433 102.241 27.7067 100.747 27.94C99.3007 28.1733 98.1107 28.3833 97.1773 28.57C96.2907 28.71 95.6607 28.8267 95.2873 28.92C87.6807 35.5467 81.7073 38.86 77.3673 38.86C75.5473 38.86 74.1473 38.2533 73.1673 37.04C73.2607 36.9467 73.3307 36.9233 73.3773 36.97C73.424 36.97 73.4707 36.97 73.5173 36.97L75.5473 37.32C78.954 37.32 84.134 34.6133 91.0873 29.2V29.13L87.3073 29.27C86.1873 29.3167 85.2073 29.0133 84.3673 28.36C83.574 27.7067 83.1773 26.9133 83.1773 25.98L83.3173 25.84C83.3173 25.7933 83.3407 25.77 83.3873 25.77L83.5973 25.91C83.8773 26.1433 84.484 26.33 85.4173 26.47C86.3507 26.61 87.6807 26.6567 89.4073 26.61L91.8573 26.54H94.1673C96.2673 24.86 98.8107 22.5267 101.797 19.54C103.197 18.0933 104.434 16.7633 105.507 15.55C106.627 14.3367 107.491 13.2867 108.097 12.4L110.267 9.25C110.454 9.25 110.547 9.50667 110.547 10.02C110.547 12.26 108.891 15.13 105.577 18.63L98.2973 26.33L106.627 25.49C107.001 24.7433 107.281 24.1367 107.467 23.67C107.701 23.2033 107.957 22.69 108.237 22.13C108.517 21.57 108.914 20.8 109.427 19.82C109.941 18.7933 110.641 17.4167 111.527 15.69L114.817 9.39L116.147 6.8C116.614 5.91333 117.127 5.09666 117.687 4.35C118.247 3.60333 118.761 3.23 119.227 3.23C119.741 3.23 120.347 3.39333 121.047 3.72C121.794 4 122.167 4.30333 122.167 4.63C121.561 5.51666 120.884 6.56666 120.137 7.78C119.437 8.99333 118.667 10.3 117.827 11.7C109.567 25.4667 105.437 35.15 105.437 40.75C105.437 40.9833 105.484 41.3333 105.577 41.8C105.671 42.3133 105.811 42.78 105.997 43.2C106.231 43.8067 106.371 44.2267 106.417 44.46C106.511 44.74 106.511 44.88 106.417 44.88ZM144.893 41.38C142.886 41.38 140.856 41.03 138.803 40.33C136.796 39.7233 135.793 38.8833 135.793 37.81C135.793 37.7167 135.839 37.67 135.933 37.67L136.353 37.81C137.426 38.51 138.779 38.86 140.413 38.86C144.379 38.86 147.879 37.9033 150.913 35.99C153.899 34.1233 155.393 32.3033 155.393 30.53C155.393 28.71 154.203 27.2167 151.823 26.05C150.516 25.3967 149.209 24.93 147.903 24.65C146.643 24.37 145.453 24.23 144.333 24.23C142.466 24.23 140.949 24.4867 139.783 25C139.316 24.9533 139.083 24.65 139.083 24.09C139.083 23.4367 139.573 22.97 140.553 22.69L142.793 22.34C147.973 20.94 152.009 19.1433 154.903 16.95C157.796 14.71 159.243 12.2133 159.243 9.46C159.243 8.10666 158.473 7.01 156.933 6.17C155.393 5.33 153.059 4.91 149.933 4.91C146.853 4.91 144.263 5.19 142.163 5.75C141.136 5.98333 139.783 6.38 138.103 6.94C136.469 7.45333 134.416 8.13 131.943 8.97C127.229 10.5567 124.779 11.35 124.593 11.35C123.799 11.35 123.403 10.79 123.403 9.67C123.403 9.15667 123.566 8.83 123.893 8.69C132.666 5.19 141.113 3.44 149.233 3.44C158.613 3.44 163.303 5.72667 163.303 10.3C163.303 12.7267 161.646 15.1767 158.333 17.65C156.699 18.8633 154.856 19.9133 152.803 20.8C150.796 21.6867 148.579 22.4333 146.153 23.04C149.746 23.32 152.616 24.23 154.763 25.77C156.909 27.2633 157.983 29.3167 157.983 31.93C157.983 34.45 156.676 36.6667 154.063 38.58C151.496 40.4467 148.439 41.38 144.893 41.38ZM129.843 45.79C129.049 45.79 128.349 45.16 127.743 43.9C127.183 42.64 126.903 41.17 126.903 39.49C126.903 33.3767 130.286 24.6267 137.053 13.24C139.013 9.55333 140.319 7.71 140.973 7.71C141.626 7.71 142.326 7.87333 143.073 8.2C143.819 8.48 144.193 8.76 144.193 9.04C144.193 9.08667 144.169 9.15667 144.123 9.25C134.043 23.8567 129.003 34.66 129.003 41.66C129.003 42.5467 129.189 43.41 129.563 44.25C129.936 45.09 130.169 45.51 130.263 45.51C130.169 45.6967 130.029 45.79 129.843 45.79ZM162.552 39.56C161.619 39.56 160.755 39.14 159.962 38.3C159.215 37.4133 158.842 36.2933 158.842 34.94C158.842 33.5867 159.659 31.4867 161.292 28.64C162.925 25.84 164.932 23.32 167.312 21.08C169.645 18.8867 171.652 17.79 173.332 17.79H174.032C175.759 17.79 177.229 18.14 178.442 18.84C179.655 19.4933 180.262 20.38 180.262 21.5C180.262 22.0133 180.052 22.27 179.632 22.27C179.492 22.27 179.422 22.2 179.422 22.06C178.675 20.3333 177.532 19.47 175.992 19.47C173.332 19.47 170.299 21.6633 166.892 26.05C163.485 30.3433 161.782 33.6567 161.782 35.99C161.782 36.8767 162.015 37.32 162.482 37.32C164.582 37.32 168.992 32.5833 175.712 23.11C175.665 23.1567 175.689 23.1567 175.782 23.11C175.922 23.0167 176.039 22.97 176.132 22.97C176.365 22.97 176.855 23.2033 177.602 23.67C178.349 24.09 178.722 24.4633 178.722 24.79C178.722 24.79 178.629 24.9533 178.442 25.28C178.255 25.56 178.022 26.0033 177.742 26.61C176.995 28.1967 176.412 29.76 175.992 31.3C175.619 32.7933 175.432 34.1 175.432 35.22C175.432 37.6933 176.039 38.93 177.252 38.93L177.952 38.79L178.092 38.86C178.092 39.28 177.509 39.49 176.342 39.49C175.222 39.49 174.289 38.9767 173.542 37.95C172.842 36.8767 172.492 35.4533 172.492 33.68C172.492 31.9533 172.795 30.04 173.402 27.94C173.355 28.08 173.192 28.3367 172.912 28.71C172.632 29.0833 172.189 29.7367 171.582 30.67C167.755 36.5967 164.745 39.56 162.552 39.56ZM189.464 14.57C188.437 14.57 187.597 14.29 186.944 13.73C187.83 13.1233 188.764 12.33 189.744 11.35C190.77 10.37 191.82 9.20333 192.894 7.85C192.987 7.85 193.034 7.96666 193.034 8.2L192.684 10.23C192.45 11.6767 192.03 12.7733 191.424 13.52C190.817 14.22 190.164 14.57 189.464 14.57ZM182.744 40.05C180.97 40.05 180.084 38.7667 180.084 36.2C180.084 32.3267 181.484 27.2167 184.284 20.87C184.284 20.6833 184.4 20.3333 184.634 19.82C184.914 19.3067 185.124 18.98 185.264 18.84C185.59 18.5133 186.034 18.35 186.594 18.35C188.227 18.35 189.114 18.6767 189.254 19.33C188.507 20.5433 187.784 21.9433 187.084 23.53C186.43 25.1167 185.777 26.8667 185.124 28.78C184.424 30.8333 183.91 32.5367 183.584 33.89C183.304 35.1967 183.164 36.2467 183.164 37.04C183.164 38.2067 183.467 38.79 184.074 38.79C184.494 38.79 185.03 38.5333 185.684 38.02C186.197 37.6 186.547 37.2967 186.734 37.11C186.967 36.9233 187.177 36.76 187.364 36.62C187.55 36.62 187.644 36.7133 187.644 36.9C187.644 37.4133 186.967 38.0667 185.614 38.86C184.26 39.6533 183.304 40.05 182.744 40.05ZM193.194 39.63C190.954 39.63 189.834 37.7633 189.834 34.03C189.834 31.65 190.581 27.73 192.074 22.27C193.568 16.7633 195.458 11.7 197.744 7.08C200.078 2.36666 202.131 0.00999713 203.904 0.00999713C204.931 0.00999713 205.958 0.359997 206.984 1.06C208.011 1.71333 208.524 2.43667 208.524 3.23C208.524 6.59 203.578 14.0567 193.684 25.63C193.311 27.3567 193.008 28.9667 192.774 30.46C192.588 31.9533 192.494 33.3533 192.494 34.66C192.494 37.2267 193.054 38.51 194.174 38.51L195.294 38.16C195.528 38.16 195.644 38.2767 195.644 38.51C195.644 39.2567 194.828 39.63 193.194 39.63ZM194.174 23.81C202.621 12.7967 206.844 5.86667 206.844 3.02C206.844 2.46 206.681 2.18 206.354 2.18C204.954 2.18 202.924 4.67666 200.264 9.67C197.604 14.6633 195.574 19.3767 194.174 23.81ZM202.615 39.77C198.648 39.77 196.665 37.9267 196.665 34.24C196.665 31.3933 198.065 27.94 200.865 23.88C203.758 19.82 206.512 17.79 209.125 17.79C210.245 17.79 211.225 18.1633 212.065 18.91C212.952 19.61 213.395 20.4733 213.395 21.5C213.395 23.2267 212.298 24.9767 210.105 26.75C207.958 28.4767 205.835 29.34 203.735 29.34C203.315 29.34 203.105 29.2467 203.105 29.06L203.315 28.71C208.682 27.03 211.365 24.2767 211.365 20.45C211.365 19.89 211.178 19.61 210.805 19.61C210.292 19.61 209.358 20.1467 208.005 21.22C206.838 22.1533 205.742 23.2267 204.715 24.44C203.735 25.6533 202.848 26.9133 202.055 28.22C200.375 31.0667 199.535 33.4467 199.535 35.36C199.535 37.2267 200.258 38.16 201.705 38.16C203.385 38.16 205.228 37.2967 207.235 35.57C207.888 34.9633 208.588 34.2867 209.335 33.54C210.082 32.7467 210.898 31.8833 211.785 30.95C213.512 29.0833 214.422 28.15 214.515 28.15C214.795 28.15 214.935 28.2667 214.935 28.5C214.935 28.6867 214.888 28.8733 214.795 29.06C209.895 36.2 205.835 39.77 202.615 39.77Z" fill="black"/>
</g>
<defs>
<filter id="filter0_d_25_32" x="0.190002" y="0.0100098" width="218.745" height="53.78" filterUnits="userSpaceOnUse" color-interpolation-filters="sRGB">
<feFlood flood-opacity="0" result="BackgroundImageFix"/>
<feColorMatrix in="SourceAlpha" type="matrix" values="0 0 0 0 0 0 0 0 0 0 0 0 0 0 0 0 0 0 127 0" result="hardAlpha"/>
<feOffset dy="4"/>
<feGaussianBlur stdDeviation="2"/>
<feColorMatrix type="matrix" values="0 0 0 0 0 0 0 0 0 0 0 0 0 0 0 0 0 0 0.25 0"/>
<feBlend mode="normal" in2="BackgroundImageFix" result="effect1_dropShadow_25_32"/>
<feBlend mode="normal" in="SourceGraphic" in2="effect1_dropShadow_25_32" result="shape"/>
</filter>
</defs>
</svg>
