<svg width="218" height="54" viewBox="0 0 218 54" fill="none" xmlns="http://www.w3.org/2000/svg">
<g filter="url(#filter0_d_21_14)">
<path d="M20.43 26.71L22.88 26.64H25.19C27.29 24.96 29.8333 22.6267 32.82 19.64C35.8067 16.6533 37.9067 14.2733 39.12 12.5L41.29 9.35C41.4767 9.35 41.57 9.60667 41.57 10.12C41.57 12.22 39.9133 15.09 36.6 18.73L29.32 26.43L37.65 25.59C39.1433 22.37 40.7767 19.1033 42.55 15.79C44.3233 12.43 45.42 10.33 45.84 9.49C46.3067 8.60333 46.75 7.74 47.17 6.9C47.6367 6.01333 48.15 5.19666 48.71 4.45C49.27 3.70333 49.7833 3.33 50.25 3.33C50.7633 3.33 51.37 3.49333 52.07 3.82C52.8167 4.1 53.19 4.40333 53.19 4.73C52.5833 5.61666 51.9067 6.66666 51.16 7.88C50.46 9.09333 49.69 10.4 48.85 11.8C40.59 25.6133 36.46 35.2967 36.46 40.85C36.46 41.5033 36.6467 42.32 37.02 43.3C37.4867 44.42 37.6267 44.98 37.44 44.98C36.5067 44.98 35.7367 44.3967 35.13 43.23C34.57 42.11 34.29 40.64 34.29 38.82C34.29 37.0467 35.2467 33.22 37.16 27.34C36.5067 27.34 34.71 27.5733 31.77 28.04C28.83 28.5067 27.01 28.8333 26.31 29.02C18.6567 35.6467 12.6833 38.96 8.39 38.96C6.57 38.96 5.17 38.3533 4.19 37.14C4.37667 37.0933 4.49333 37.07 4.54 37.07L6.57 37.42C10.0233 37.42 15.2033 34.7133 22.11 29.3V29.23L18.33 29.37C17.21 29.37 16.23 29.0667 15.39 28.46C14.5967 27.8067 14.2 27.0133 14.2 26.08L14.34 25.94C14.34 25.8933 14.3633 25.87 14.41 25.87L14.62 26.01C15.0867 26.4767 17.0233 26.71 20.43 26.71ZM72.9355 16C72.9355 15.8133 73.0755 15.6733 73.3555 15.58C74.5221 15.58 75.1055 16.14 75.1055 17.26C75.1055 18.8933 73.5421 20.5033 70.4155 22.09L65.0255 24.61C67.1721 25.87 68.2455 27.5033 68.2455 29.51C68.2455 32.2633 66.7055 34.62 63.6255 36.58C60.5455 38.54 57.0688 39.52 53.1955 39.52C52.2621 39.4267 51.6555 39.38 51.3755 39.38C52.2155 40.5 53.3121 41.48 54.6655 42.32C56.0655 43.2067 57.2321 43.65 58.1655 43.65C59.0988 43.65 59.6821 43.6033 59.9155 43.51C60.1488 43.4167 60.2888 43.3933 60.3355 43.44C60.3355 43.72 60.0321 43.9767 59.4255 44.21C58.8188 44.4433 58.2355 44.56 57.6755 44.56C54.6888 44.56 52.1688 42.74 50.1155 39.1C47.8288 38.8667 46.1255 38.05 45.0055 36.65C43.9321 35.25 43.3955 33.64 43.3955 31.82C43.3955 29.1133 44.6555 26.64 47.1755 24.4C49.6955 22.16 52.8921 20.6433 56.7655 19.85L54.8055 19.57C53.7788 19.29 53.2655 18.7533 53.2655 17.96C53.2655 16.3267 54.9455 14.6233 58.3055 12.85C61.7121 11.03 65.4921 10.12 69.6455 10.12C71.7921 7.74 73.2855 6.55 74.1255 6.55C75.0121 6.55 75.4555 6.92333 75.4555 7.67C74.9888 8.37 74.3355 9.14 73.4955 9.98C72.6555 10.82 71.9088 11.6133 71.2555 12.36C70.6488 13.06 70.1588 13.62 69.7855 14.04C69.4121 14.4133 69.1088 14.8333 68.8755 15.3C68.6421 15.7667 68.5255 16.0467 68.5255 16.14C68.2921 16.7467 68.1755 17.2367 68.1755 17.61C67.4288 17.47 67.0555 16.7467 67.0555 15.44C67.0555 14.1333 67.7788 12.5467 69.2255 10.68C66.6588 10.82 64.2321 11.4733 61.9455 12.64C59.7055 13.8067 58.0488 14.95 56.9755 16.07C55.9488 17.19 55.4355 17.96 55.4355 18.38C55.4355 18.9867 55.9955 19.29 57.1155 19.29L62.3655 18.73C63.8588 18.73 64.6055 19.15 64.6055 19.99C64.6055 20.5033 64.4888 20.76 64.2555 20.76L63.3455 20.62H62.4355L61.5255 20.55C57.8855 20.55 54.2921 21.8567 50.7455 24.47C47.2455 27.0833 45.4955 29.7433 45.4955 32.45C45.4955 35.1567 46.8721 37.0233 49.6255 38.05C49.3921 37.35 49.2755 36.6267 49.2755 35.88C49.2755 35.1333 49.3688 34.48 49.5555 33.92C49.7888 33.3133 50.1621 32.73 50.6755 32.17C51.2355 31.5633 51.7021 31.05 52.0755 30.63C52.4955 30.21 53.1955 29.6967 54.1755 29.09C55.1555 28.4833 55.8555 28.0633 56.2755 27.83C56.6955 27.55 57.5355 27.06 58.7955 26.36C60.0555 25.66 60.8488 25.2167 61.1755 25.03C61.0821 24.8433 60.8021 24.75 60.3355 24.75C58.9355 24.75 57.3955 25.24 55.7155 26.22C54.0355 27.1533 53.0788 28.04 52.8455 28.88C52.7521 28.7867 52.7055 28.5767 52.7055 28.25C52.7055 27.2233 53.4988 26.22 55.0855 25.24C56.6721 24.26 58.7255 23.77 61.2455 23.77C61.6655 23.77 62.3421 23.8167 63.2755 23.91C64.9088 23.49 67.0555 22.2767 69.7155 20.27C72.3755 18.2167 73.7055 16.9567 73.7055 16.49C73.7055 16.35 73.5655 16.2567 73.2855 16.21C73.0521 16.1167 72.9355 16.0467 72.9355 16ZM66.4255 28.18C66.4255 27.5267 66.0755 26.8733 65.3755 26.22C64.7221 25.5667 64.0688 25.24 63.4155 25.24C62.2021 25.24 59.7755 26.9433 56.1355 30.35C52.4955 33.71 50.6755 36.1833 50.6755 37.77V38.26C51.1888 38.4 51.7955 38.47 52.4955 38.47C55.6688 38.47 58.7721 37.3733 61.8055 35.18C64.8855 32.9867 66.4255 30.6533 66.4255 28.18ZM89.4073 26.71L91.8573 26.64H94.1673C96.2673 24.96 98.8107 22.6267 101.797 19.64C104.784 16.6533 106.884 14.2733 108.097 12.5L110.267 9.35C110.454 9.35 110.547 9.60667 110.547 10.12C110.547 12.22 108.891 15.09 105.577 18.73L98.2973 26.43L106.627 25.59C108.121 22.37 109.754 19.1033 111.527 15.79C113.301 12.43 114.397 10.33 114.817 9.49C115.284 8.60333 115.727 7.74 116.147 6.9C116.614 6.01333 117.127 5.19666 117.687 4.45C118.247 3.70333 118.761 3.33 119.227 3.33C119.741 3.33 120.347 3.49333 121.047 3.82C121.794 4.1 122.167 4.40333 122.167 4.73C121.561 5.61666 120.884 6.66666 120.137 7.88C119.437 9.09333 118.667 10.4 117.827 11.8C109.567 25.6133 105.437 35.2967 105.437 40.85C105.437 41.5033 105.624 42.32 105.997 43.3C106.464 44.42 106.604 44.98 106.417 44.98C105.484 44.98 104.714 44.3967 104.107 43.23C103.547 42.11 103.267 40.64 103.267 38.82C103.267 37.0467 104.224 33.22 106.137 27.34C105.484 27.34 103.687 27.5733 100.747 28.04C97.8073 28.5067 95.9873 28.8333 95.2873 29.02C87.634 35.6467 81.6607 38.96 77.3673 38.96C75.5473 38.96 74.1473 38.3533 73.1673 37.14C73.354 37.0933 73.4707 37.07 73.5173 37.07L75.5473 37.42C79.0007 37.42 84.1807 34.7133 91.0873 29.3V29.23L87.3073 29.37C86.1873 29.37 85.2073 29.0667 84.3673 28.46C83.574 27.8067 83.1773 27.0133 83.1773 26.08L83.3173 25.94C83.3173 25.8933 83.3407 25.87 83.3873 25.87L83.5973 26.01C84.064 26.4767 86.0007 26.71 89.4073 26.71ZM163.303 10.4C163.303 12.8733 161.646 15.3233 158.333 17.75C155.019 20.1767 150.959 21.9733 146.153 23.14C149.746 23.42 152.616 24.33 154.763 25.87C156.909 27.3633 157.983 29.4167 157.983 32.03C157.983 34.5967 156.676 36.8133 154.063 38.68C151.496 40.5467 148.439 41.48 144.893 41.48C142.839 41.48 140.809 41.13 138.803 40.43C136.796 39.7767 135.793 38.9367 135.793 37.91C135.793 37.8167 135.839 37.77 135.933 37.77L136.353 37.91C137.426 38.61 138.779 38.96 140.413 38.96C144.426 38.96 147.926 38.0033 150.913 36.09C153.899 34.1767 155.393 32.3567 155.393 30.63C155.393 28.8567 154.203 27.3633 151.823 26.15C149.489 24.9367 147.203 24.33 144.963 24.33C142.769 24.33 141.043 24.5867 139.783 25.1C139.316 25.0067 139.083 24.7033 139.083 24.19C139.083 23.5367 139.573 23.07 140.553 22.79L142.793 22.44C147.973 21.04 152.009 19.2433 154.903 17.05C157.796 14.81 159.243 12.3133 159.243 9.56C159.243 8.20666 158.473 7.11 156.933 6.27C155.393 5.43 153.059 5.01 149.933 5.01C146.853 5.01 144.263 5.29 142.163 5.85C140.109 6.36333 136.703 7.43667 131.943 9.07C127.183 10.6567 124.733 11.45 124.593 11.45C123.799 11.45 123.403 10.89 123.403 9.77C123.403 9.25667 123.566 8.93 123.893 8.79C132.666 5.29 141.113 3.54 149.233 3.54C158.613 3.54 163.303 5.82667 163.303 10.4ZM144.193 9.14C144.193 9.23333 144.169 9.30333 144.123 9.35C134.043 23.9567 129.003 34.76 129.003 41.76C129.003 42.6467 129.189 43.51 129.563 44.35C129.936 45.19 130.169 45.61 130.263 45.61V45.54C130.263 45.7733 130.123 45.89 129.843 45.89C129.049 45.89 128.349 45.26 127.743 44C127.183 42.74 126.903 41.27 126.903 39.59C126.903 33.5233 130.286 24.7733 137.053 13.34C139.013 9.65333 140.319 7.81 140.973 7.81C141.626 7.81 142.326 7.97333 143.073 8.3C143.819 8.58 144.193 8.86 144.193 9.14ZM177.252 39.03L177.952 38.89L178.092 38.96C178.092 39.38 177.509 39.59 176.342 39.59C175.222 39.59 174.289 39.0767 173.542 38.05C172.842 37.0233 172.492 35.6467 172.492 33.92C172.492 32.1467 172.819 30.14 173.472 27.9C173.472 28.04 172.842 28.9967 171.582 30.77C167.755 36.6967 164.745 39.66 162.552 39.66C161.619 39.66 160.755 39.2167 159.962 38.33C159.215 37.49 158.842 36.3933 158.842 35.04C158.842 33.64 159.659 31.54 161.292 28.74C162.972 25.8933 164.979 23.3733 167.312 21.18C169.645 18.9867 171.652 17.89 173.332 17.89H174.032C175.759 17.89 177.229 18.24 178.442 18.94C179.655 19.5933 180.262 20.48 180.262 21.6C180.262 22.1133 180.052 22.37 179.632 22.37C179.492 22.37 179.422 22.3 179.422 22.16C178.629 20.4333 177.485 19.57 175.992 19.57C173.379 19.57 170.345 21.7633 166.892 26.15C163.485 30.49 161.782 33.8033 161.782 36.09C161.782 36.9767 162.015 37.42 162.482 37.42C164.582 37.42 168.992 32.6833 175.712 23.21C175.805 23.1167 175.945 23.07 176.132 23.07C176.365 23.07 176.855 23.3033 177.602 23.77C178.349 24.19 178.722 24.5633 178.722 24.89C178.722 24.89 178.395 25.4967 177.742 26.71C176.202 29.9767 175.432 32.8467 175.432 35.32C175.432 37.7933 176.039 39.03 177.252 39.03ZM191.526 7.95C191.62 7.95 191.666 8.06667 191.666 8.3L191.316 10.33C190.616 13.2233 189.543 14.67 188.096 14.67C187.023 14.67 186.183 14.39 185.576 13.83C187.35 12.6167 189.333 10.6567 191.526 7.95ZM187.886 19.43C186.44 21.9033 185.063 25.0533 183.756 28.88C182.45 32.66 181.796 35.2733 181.796 36.72C181.796 38.1667 182.1 38.89 182.706 38.89C183.126 38.89 183.663 38.6333 184.316 38.12C184.97 37.6067 185.366 37.28 185.506 37.14C185.646 37 185.81 36.86 185.996 36.72C186.183 36.72 186.276 36.8133 186.276 37C186.276 37.56 185.6 38.2133 184.246 38.96C182.94 39.7533 181.983 40.15 181.376 40.15C179.603 40.15 178.716 38.8667 178.716 36.3C178.716 32.4733 180.116 27.3633 182.916 20.97C182.916 20.7833 183.033 20.4333 183.266 19.92C183.546 19.4067 183.756 19.08 183.896 18.94C184.223 18.6133 184.666 18.45 185.226 18.45C186.86 18.45 187.746 18.7767 187.886 19.43ZM192.807 38.61L193.927 38.26C194.161 38.26 194.277 38.3767 194.277 38.61C194.277 39.3567 193.461 39.73 191.827 39.73C189.587 39.73 188.467 37.8633 188.467 34.13C188.467 31.6567 189.214 27.7367 190.707 22.37C192.201 16.9567 194.091 11.8933 196.377 7.18C198.664 2.46667 200.717 0.109999 202.537 0.109999C203.564 0.109999 204.591 0.459999 205.617 1.16C206.644 1.81333 207.157 2.53666 207.157 3.33C207.157 6.69 202.211 14.1567 192.317 25.73C191.524 29.1833 191.127 32.1933 191.127 34.76C191.127 37.3267 191.687 38.61 192.807 38.61ZM205.477 3.12C205.477 2.56 205.314 2.28 204.987 2.28C203.587 2.28 201.557 4.77666 198.897 9.77C196.237 14.7167 194.207 19.43 192.807 23.91C201.254 12.85 205.477 5.92 205.477 3.12ZM213.148 28.25C213.428 28.25 213.568 28.3667 213.568 28.6C213.568 28.7867 213.521 28.9733 213.428 29.16C208.528 36.3 204.468 39.87 201.248 39.87C197.281 39.87 195.298 38.0267 195.298 34.34C195.298 31.4933 196.698 28.04 199.498 23.98C202.344 19.92 205.098 17.89 207.758 17.89C208.878 17.89 209.858 18.2633 210.698 19.01C211.584 19.71 212.028 20.5733 212.028 21.6C212.028 23.3733 210.931 25.1233 208.738 26.85C206.544 28.5767 204.421 29.44 202.368 29.44C201.948 29.44 201.738 29.3467 201.738 29.16L201.948 28.81C207.314 27.13 209.998 24.3767 209.998 20.55C209.998 19.99 209.811 19.71 209.438 19.71C208.878 19.71 207.944 20.2467 206.638 21.32C204.351 23.1867 202.368 25.52 200.688 28.32C199.008 31.12 198.168 33.4767 198.168 35.39C198.168 37.3033 198.891 38.26 200.338 38.26C201.971 38.26 203.814 37.3967 205.868 35.67C207.174 34.4567 208.691 32.9167 210.418 31.05C212.191 29.1833 213.101 28.25 213.148 28.25Z" fill="white"/>
</g>
<defs>
<filter id="filter0_d_21_14" x="0.190002" y="0.109985" width="217.378" height="53.78" filterUnits="userSpaceOnUse" color-interpolation-filters="sRGB">
<feFlood flood-opacity="0" result="BackgroundImageFix"/>
<feColorMatrix in="SourceAlpha" type="matrix" values="0 0 0 0 0 0 0 0 0 0 0 0 0 0 0 0 0 0 127 0" result="hardAlpha"/>
<feOffset dy="4"/>
<feGaussianBlur stdDeviation="2"/>
<feColorMatrix type="matrix" values="0 0 0 0 0 0 0 0 0 0 0 0 0 0 0 0 0 0 0.25 0"/>
<feBlend mode="normal" in2="BackgroundImageFix" result="effect1_dropShadow_21_14"/>
<feBlend mode="normal" in="SourceGraphic" in2="effect1_dropShadow_21_14" result="shape"/>
</filter>
</defs>
</svg>
